<svg xmlns="http://www.w3.org/2000/svg" id="logo-lightbg" width="559.7" height="265.8" viewBox="0 0 559.7 265.8"><title>logo-wordmark-v-lightbg</title><rect x="202.9" y="109.2" width="7.7" height="40.61" fill="#453f38"></rect><path d="M229.4,116.9a8.4,8.4,0,0,1,8.3,8.4v24.5h7.7V125.3a16,16,0,1,0-32,0v24.5h7.7V125.3A8.4,8.4,0,0,1,229.4,116.9Z" fill="#453f38"></path><path d="M293.9,149.8a16,16,0,0,0,16-16V109.2h-7.7v24.6a8.3,8.3,0,0,1-16.6,0V109.2h-7.7v24.6A16,16,0,0,0,293.9,149.8Z" fill="#453f38"></path><path d="M436.8,109.2a20.3,20.3,0,1,0,20.3,20.3A20.4,20.4,0,0,0,436.8,109.2Zm0,32.9a12.6,12.6,0,1,1,12.5-12.6A12.5,12.5,0,0,1,436.8,142.1Z" fill="#453f38"></path><path d="M396.7,149.8V129.5a20.3,20.3,0,1,0-20.3,20.3,19.3,19.3,0,0,0,9.8-2.5l2.8-1.5v4ZM389,129.7a12.7,12.7,0,1,1,0-.2Z" fill="#453f38"></path><path d="M333,149.8a20.3,20.3,0,1,0,0-40.6,20,20,0,0,0-9.8,2.6l-2.8,1.5V94.9h-7.7v34.6A20.3,20.3,0,0,0,333,149.8Zm0-32.9a12.6,12.6,0,1,1-12.6,12.6A12.6,12.6,0,0,1,333,116.9Z" fill="#453f38"></path><path d="M275.1,116.9v-7.7h-6.6a20.3,20.3,0,0,0,0,40.6h6.6v-7.7h-6.6a12.6,12.6,0,0,1,0-25.2Z" fill="#453f38"></path><path d="M478.3,117v-7.7a20.3,20.3,0,0,0-18.5,20.2v20.3h7.8V129.5A12.6,12.6,0,0,1,478.3,117Z" fill="#453f38"></path><circle cx="206.7" cy="98.6" r="3.9" fill="#453f38"></circle><path d="M526.6,123.4l-1.2-1.2,1.2-1.3a15.7,15.7,0,0,0,4.2-10.7,15.8,15.8,0,0,0-15.9-15.7h-7.6V102h7.6a8.2,8.2,0,1,1,0,16.4h-5.6v7.5h5.6a8.2,8.2,0,1,1,0,16.4h-7.6v7.5h7.6a15.8,15.8,0,0,0,15.9-15.7A16,16,0,0,0,526.6,123.4Z" fill="#453f38"></path><path d="M413.7,149.8V142a8.4,8.4,0,0,1-6.5-8.1V114.2h4.4v-7.7h-4.4V94.7h-7.7v11.8h-6v7.7h6v19.7A16,16,0,0,0,413.7,149.8Z" fill="#453f38"></path><path d="M482,142.1v7.7h22.5v-7.7h-6.6V113.7A20.2,20.2,0,0,0,482,95.1v8a12.6,12.6,0,0,1,8.2,11.8v27.2Z" fill="#453f38"></path><polygon points="35.5 133.3 28.9 130.3 34 119.2 35.5 133.3" fill="#9e2024"></polygon><polygon points="31.7 97.4 44.6 96 34 119.2 31.7 97.4" fill="#524e4b"></polygon><polygon points="42.4 200 104.5 193.6 94.5 160.4 35.5 133.3 42.4 200" fill="#453f38"></polygon><polygon points="109.3 209.5 204.1 181.1 175.7 86.2 163 90 140 140.2 145.1 189.4 104.5 193.6 109.3 209.5" fill="#384c98"></polygon><polygon points="94.5 160.4 104.5 193.6 145.1 189.4 140 140.2 124.4 174.1 94.5 160.4" fill="#524e4b"></polygon><polygon points="80.8 114.6 135.6 98.1 140 140.2 124.4 174.1 94.5 160.4 80.8 114.6" fill="#9e2024"></polygon><polygon points="163 90 140 140.2 135.6 98.1 163 90" fill="#243770"></polygon><polygon points="134.4 86.7 135.6 98.1 80.8 114.6 94.5 160.4 35.5 133.3 34 119.2 44.6 96 134.4 86.7" fill="#c62927"></polygon><polygon points="72.7 34.8 168.2 78.6 163 90 135.6 98.1 134.4 86.7 44.6 96 72.7 34.8" fill="#ed1c24"></polygon><path d="M155.1,72.7l-6.9-3.2a38.6,38.6,0,0,1,2.3,13.2v2.2h0a40.3,40.3,0,0,1-6.6,19.9h-.1v.2a118.1,118.1,0,0,1-9.5,13.2c-4.2,5.2-8.8,12.5-8,22.1h0l-.9.4-5.8,1.1V103.8H95V142l-5.9-1.1-.9-.4h0c.9-9.6-3.8-16.9-8-22.1a117.8,117.8,0,0,1-9.4-13.2V105h-.1a38.6,38.6,0,0,1-6.7-21.7v-.6C64,64.8,76,49.7,92.7,44l-7.2-3.3c-16.2,7.7-27.4,23.6-27.4,42v.4a45,45,0,0,0,7.7,25A130.6,130.6,0,0,0,75.7,122c4.2,5.3,7.4,10.9,6.8,18-.3,3.3,1.8,5.7,5.3,6.5a71.4,71.4,0,0,0,13,1.8V109.6h13v38.7a71.5,71.5,0,0,0,12.9-1.8c3.4-.8,5.6-3.2,5.3-6.5-.6-7.1,2.5-12.7,6.7-18a122,122,0,0,0,10-13.9,45.5,45.5,0,0,0,7.5-22.8V85c0-.4.1-.7.1-1.1h0V82.7A41.5,41.5,0,0,0,155.1,72.7Z" fill="#fff"></path><path d="M107,73a12.4,12.4,0,1,0,12.4,12.4A12.3,12.3,0,0,0,107,73Zm0,18.6a6.3,6.3,0,1,1,6.3-6.2A6.3,6.3,0,0,1,107,91.6Z" fill="#fff"></path><path d="M148.2,65.9a2.3,2.3,0,0,1-2.1-1.3,42.9,42.9,0,0,0-4.2-6.8,2.4,2.4,0,0,1,3.9-2.9,45.2,45.2,0,0,1,4.6,7.6,2.4,2.4,0,0,1-1.1,3.2A2.2,2.2,0,0,1,148.2,65.9ZM138.1,52.5a2.7,2.7,0,0,1-1.6-.6,37.2,37.2,0,0,0-6.4-4.6,2.5,2.5,0,0,1-.9-3.3,2.6,2.6,0,0,1,3.3-.9,47.2,47.2,0,0,1,7.2,5.2,2.4,2.4,0,0,1,.2,3.4A2.1,2.1,0,0,1,138.1,52.5Zm-14.5-8.3-.7-.2a40.1,40.1,0,0,0-7.8-1.7,2.4,2.4,0,0,1,.6-4.8,42.3,42.3,0,0,1,8.7,2,2.3,2.3,0,0,1,1.5,3A2.5,2.5,0,0,1,123.6,44.2Zm-25-1a2.3,2.3,0,0,1-2.3-2,2.3,2.3,0,0,1,1.8-2.8,68.7,68.7,0,0,1,8.8-1.2,2.4,2.4,0,0,1,2.5,2.3,2.3,2.3,0,0,1-2.3,2.5,56.9,56.9,0,0,0-8,1.1Z" fill="#453f38"></path><path d="M124.9,151c-10,4.1-25,1.5-25,1.5a1.1,1.1,0,0,0-1.2,1.1v2.2a2.1,2.1,0,0,0,2,2.2h.4a88.8,88.8,0,0,0,11.5.8,35.3,35.3,0,0,0,10.1-1.1,29.8,29.8,0,0,1-.4,3.3,3.2,3.2,0,0,1-3,2.3,53.2,53.2,0,0,1-12.1,0l-2.5-.3a1.7,1.7,0,0,0-1.9,1.7v2.1a1.7,1.7,0,0,0,1.5,1.7h1.1a59.1,59.1,0,0,0,8,.5,57.9,57.9,0,0,0,6.5-.4c-3.4,6.7-8.6,8.1-8.7,8.1l-1.6.6a1.3,1.3,0,0,0-.8,1.7l1,2.7a1.6,1.6,0,0,0,2.1.9l1.2-.4c2-.6,15.4-5.3,16-26.3v-2.7S129.1,149.2,124.9,151Z" fill="#fff"></path><path d="M104.8,177.2l-1.6-.5a15.3,15.3,0,0,1-6.8-5.2h0c-3-3.4-4.3-8.7-4.7-13.8v-.2h0c-.1-1.6-.1-3.2-.1-4.7a1.8,1.8,0,0,0-1.2-1.7l-.8-.3c-4.3-1.8-4.3,2.3-4.3,2.3v2.7c.7,21.1,14.1,25.7,16,26.3l1.3.4a1.7,1.7,0,0,0,2.1-.9l1-2.7A1.4,1.4,0,0,0,104.8,177.2Z" fill="#fff"></path></svg>